<svg xmlns="http://www.w3.org/2000/svg" viewBox="0 0 440 290" font-family="Arial, sans-serif" font-size="22">
<rect width="440" height="290" fill="#ffffff"/>
<polygon points="90.0,240.0 290.0,240.0 290.0,120.0 90.0,120.0" fill="#dbeafe"/>
<polygon points="90.0,120.0 290.0,120.0 340.4,84.0 140.4,84.0" fill="#eff6ff"/>
<polygon points="290.0,240.0 340.4,204.0 340.4,84.0 290.0,120.0" fill="#bfdbfe"/>
<line x1="90.0" y1="240.0" x2="290.0" y2="240.0" stroke="#1e3a8a" stroke-width="3" stroke-linecap="round"/>
<line x1="90.0" y1="120.0" x2="290.0" y2="120.0" stroke="#1e3a8a" stroke-width="3" stroke-linecap="round"/>
<line x1="140.4" y1="204.0" x2="340.4" y2="204.0" stroke="#dc2626" stroke-width="4" stroke-dasharray="8 6" stroke-linecap="round"/>
<line x1="140.4" y1="84.0" x2="340.4" y2="84.0" stroke="#1e3a8a" stroke-width="3" stroke-linecap="round"/>
<line x1="90.0" y1="240.0" x2="90.0" y2="120.0" stroke="#1e3a8a" stroke-width="3" stroke-linecap="round"/>
<line x1="290.0" y1="240.0" x2="290.0" y2="120.0" stroke="#1e3a8a" stroke-width="3" stroke-linecap="round"/>
<line x1="140.4" y1="204.0" x2="140.4" y2="84.0" stroke="#dc2626" stroke-width="4" stroke-dasharray="8 6" stroke-linecap="round"/>
<line x1="340.4" y1="204.0" x2="340.4" y2="84.0" stroke="#1e3a8a" stroke-width="3" stroke-linecap="round"/>
<line x1="90.0" y1="240.0" x2="140.4" y2="204.0" stroke="#dc2626" stroke-width="4" stroke-dasharray="8 6" stroke-linecap="round"/>
<line x1="290.0" y1="240.0" x2="340.4" y2="204.0" stroke="#1e3a8a" stroke-width="3" stroke-linecap="round"/>
<line x1="90.0" y1="120.0" x2="140.4" y2="84.0" stroke="#1e3a8a" stroke-width="3" stroke-linecap="round"/>
<line x1="290.0" y1="120.0" x2="340.4" y2="84.0" stroke="#1e3a8a" stroke-width="3" stroke-linecap="round"/>
</svg>
