<svg xmlns="http://www.w3.org/2000/svg" viewBox="0 0 420 388" font-family="Arial, sans-serif" font-size="22">
<rect width="420" height="388" fill="#ffffff"/>
<line x1="90.0" y1="250.0" x2="246.4" y2="250.0" stroke="#57534e" stroke-width="4" stroke-linecap="round"/>
<line x1="90.0" y1="93.6" x2="246.4" y2="93.6" stroke="#57534e" stroke-width="4" stroke-linecap="round"/>
<line x1="155.7" y1="203.1" x2="312.1" y2="203.1" stroke="#57534e" stroke-width="4" stroke-linecap="round"/>
<line x1="155.7" y1="46.7" x2="312.1" y2="46.7" stroke="#57534e" stroke-width="4" stroke-linecap="round"/>
<line x1="90.0" y1="250.0" x2="90.0" y2="93.6" stroke="#57534e" stroke-width="4" stroke-linecap="round"/>
<line x1="246.4" y1="250.0" x2="246.4" y2="93.6" stroke="#57534e" stroke-width="4" stroke-linecap="round"/>
<line x1="155.7" y1="203.1" x2="155.7" y2="46.7" stroke="#57534e" stroke-width="4" stroke-linecap="round"/>
<line x1="312.1" y1="203.1" x2="312.1" y2="46.7" stroke="#57534e" stroke-width="4" stroke-linecap="round"/>
<line x1="90.0" y1="250.0" x2="155.7" y2="203.1" stroke="#57534e" stroke-width="4" stroke-linecap="round"/>
<line x1="246.4" y1="250.0" x2="312.1" y2="203.1" stroke="#57534e" stroke-width="4" stroke-linecap="round"/>
<line x1="90.0" y1="93.6" x2="155.7" y2="46.7" stroke="#57534e" stroke-width="4" stroke-linecap="round"/>
<line x1="246.4" y1="93.6" x2="312.1" y2="46.7" stroke="#57534e" stroke-width="4" stroke-linecap="round"/>
<text x="160.8" y="280.8" text-anchor="middle" font-weight="bold" font-size="24" fill="#111">?</text>
<text x="338.4" y="332" text-anchor="end" font-size="26" font-weight="bold" fill="#1f2430">האיור</text>
<text x="259.5" y="332" text-anchor="end" font-size="26" font-weight="bold" fill="#1f2430">לשאלה</text>
<text x="160.7" y="332" text-anchor="end" font-size="26" font-weight="bold" fill="#1f2430">3</text>
<text x="136.4" y="332" text-anchor="end" font-size="26" font-weight="bold" fill="#1f2430">–</text>
<text x="112.1" y="332" text-anchor="end" font-size="26" font-weight="bold" fill="#1f2430">כל</text>
<text x="356.5" y="370" text-anchor="end" font-size="26" font-weight="bold" fill="#1f2430">המקצועות</text>
<text x="220.9" y="370" text-anchor="end" font-size="26" font-weight="bold" fill="#1f2430">יחד</text>
<text x="177.8" y="370" text-anchor="end" font-size="26" font-weight="bold" fill="#1f2430">:</text>
<text x="159.6" y="370" text-anchor="end" font-size="26" font-weight="bold" fill="#1f2430">60</text>
<text x="119.9" y="370" text-anchor="end" font-size="26" font-weight="bold" fill="#1f2430">ס״מ</text>
</svg>
